# Blender v2.78 (sub 0) OBJ File: 'tile.blend'
# www.blender.org
mtllib tile.mtl
o Tile_Cube
v 1.700000 -0.700000 -1.050000
v 1.450000 -0.950000 -1.050000
v 1.450000 -0.700000 -1.300000
v 1.666601 -0.824836 -1.050000
v 1.666601 -0.700000 -1.174836
v 1.634158 -0.819553 -1.169553
v 1.450000 -0.916601 -1.174836
v 1.574836 -0.916601 -1.050000
v 1.569553 -0.884158 -1.169553
v 1.574836 -0.700000 -1.266601
v 1.450000 -0.824836 -1.266601
v 1.569553 -0.819553 -1.234158
v 1.700000 -0.700000 1.050000
v 1.450000 -0.700000 1.300000
v 1.450000 -0.950000 1.050000
v 1.666601 -0.700000 1.174836
v 1.666601 -0.824836 1.050000
v 1.634158 -0.819553 1.169553
v 1.450000 -0.824836 1.266601
v 1.574836 -0.700000 1.266601
v 1.569553 -0.819553 1.234158
v 1.574836 -0.916601 1.050000
v 1.450000 -0.916601 1.174836
v 1.569553 -0.884158 1.169553
v -1.450000 -0.700000 1.300000
v -1.700000 -0.700000 1.050000
v -1.450000 -0.950000 1.050000
v -1.574836 -0.700000 1.266601
v -1.450000 -0.824836 1.266601
v -1.569553 -0.819553 1.234158
v -1.666601 -0.824836 1.050000
v -1.666601 -0.700000 1.174836
v -1.634158 -0.819553 1.169553
v -1.450000 -0.916601 1.174836
v -1.574836 -0.916601 1.050000
v -1.569553 -0.884158 1.169553
v -1.450000 -0.700000 -1.300000
v -1.450000 -0.950000 -1.050000
v -1.700000 -0.700000 -1.050000
v -1.449999 -0.824836 -1.266601
v -1.574835 -0.700000 -1.266601
v -1.569552 -0.819553 -1.234159
v -1.574835 -0.916601 -1.050000
v -1.449999 -0.916601 -1.174836
v -1.569552 -0.884158 -1.169553
v -1.666600 -0.700000 -1.174836
v -1.666600 -0.824836 -1.050000
v -1.634158 -0.819553 -1.169553
v 1.450000 0.700000 -1.300000
v 1.450000 0.950000 -1.049999
v 1.700000 0.700000 -1.049999
v 1.450001 0.824836 -1.266600
v 1.574836 0.700000 -1.266600
v 1.569553 0.819553 -1.234158
v 1.574836 0.916601 -1.049999
v 1.450001 0.916601 -1.174835
v 1.569553 0.884158 -1.169552
v 1.666601 0.700000 -1.174835
v 1.666601 0.824836 -1.049999
v 1.634159 0.819553 -1.169552
v 1.449999 0.700000 1.300000
v 1.700000 0.700000 1.050001
v 1.449999 0.950000 1.050001
v 1.574835 0.700000 1.266601
v 1.449999 0.824836 1.266601
v 1.569552 0.819553 1.234159
v 1.666600 0.824836 1.050001
v 1.666600 0.700000 1.174837
v 1.634158 0.819553 1.169554
v 1.449999 0.916601 1.174837
v 1.574835 0.916601 1.050001
v 1.569552 0.884158 1.169553
v -1.700000 0.700000 1.050000
v -1.450000 0.700000 1.300000
v -1.450000 0.950000 1.050000
v -1.666601 0.700000 1.174836
v -1.666601 0.824836 1.050000
v -1.634158 0.819553 1.169552
v -1.450000 0.824836 1.266601
v -1.574836 0.700000 1.266601
v -1.569553 0.819553 1.234158
v -1.574836 0.916601 1.050000
v -1.450000 0.916601 1.174836
v -1.569553 0.884158 1.169553
v -1.700000 0.700000 -1.050000
v -1.450000 0.950000 -1.050000
v -1.450000 0.700000 -1.300000
v -1.666601 0.824836 -1.050000
v -1.666601 0.700000 -1.174836
v -1.634158 0.819553 -1.169553
v -1.450000 0.916601 -1.174836
v -1.574836 0.916601 -1.050000
v -1.569553 0.884158 -1.169553
v -1.574836 0.700000 -1.266601
v -1.450000 0.824836 -1.266601
v -1.569553 0.819553 -1.234158
vn 0.1296 0.1296 -0.9831
vn 0.1296 -0.1296 -0.9831
vn -0.1296 -0.1296 -0.9831
vn -0.1296 0.1296 -0.9831
vn 0.1296 -0.1296 0.9831
vn 0.1296 0.1296 0.9831
vn -0.1296 0.1296 0.9831
vn -0.1296 -0.1296 0.9831
vn -0.9831 -0.1296 0.1296
vn -0.9831 0.1296 0.1296
vn -0.9831 0.1296 -0.1296
vn -0.9831 -0.1296 -0.1296
vn 0.1296 0.9831 -0.1296
vn -0.1296 0.9831 -0.1296
vn -0.1296 0.9831 0.1296
vn 0.1296 0.9831 0.1296
vn 0.9831 -0.1296 -0.1296
vn 0.9831 0.1296 -0.1296
vn 0.9831 0.1296 0.1296
vn 0.9831 -0.1296 0.1296
vn 0.8623 -0.4915 -0.1216
vn 0.7744 -0.4473 -0.4473
vn 0.8623 -0.1216 -0.4915
vn 0.4915 -0.8623 -0.1216
vn 0.4473 -0.7744 -0.4473
vn 0.1296 -0.9831 -0.1296
vn 0.1216 -0.8623 -0.4915
vn 0.1216 -0.4915 -0.8623
vn 0.4473 -0.4473 -0.7744
vn 0.4915 -0.1216 -0.8623
vn 0.8623 -0.1216 0.4915
vn 0.7744 -0.4473 0.4473
vn 0.8623 -0.4915 0.1216
vn 0.4915 -0.1216 0.8623
vn 0.4473 -0.4473 0.7744
vn 0.1216 -0.4915 0.8623
vn 0.1216 -0.8623 0.4915
vn 0.4473 -0.7744 0.4473
vn 0.1296 -0.9831 0.1296
vn 0.4915 -0.8623 0.1216
vn -0.4915 -0.1216 0.8623
vn -0.4473 -0.4473 0.7744
vn -0.1216 -0.4915 0.8623
vn -0.8623 -0.1216 0.4915
vn -0.7744 -0.4473 0.4473
vn -0.8623 -0.4915 0.1216
vn -0.4915 -0.8623 0.1216
vn -0.4473 -0.7744 0.4473
vn -0.1296 -0.9831 0.1296
vn -0.1216 -0.8623 0.4915
vn -0.1216 -0.4915 -0.8623
vn -0.4473 -0.4473 -0.7744
vn -0.4915 -0.1216 -0.8623
vn -0.1216 -0.8623 -0.4915
vn -0.4473 -0.7744 -0.4473
vn -0.1296 -0.9831 -0.1296
vn -0.4915 -0.8623 -0.1216
vn -0.8623 -0.4915 -0.1216
vn -0.7744 -0.4473 -0.4473
vn -0.8623 -0.1216 -0.4915
vn 0.1216 0.4915 -0.8623
vn 0.4473 0.4473 -0.7744
vn 0.4915 0.1216 -0.8623
vn 0.1216 0.8623 -0.4915
vn 0.4473 0.7744 -0.4473
vn 0.4915 0.8623 -0.1216
vn 0.8623 0.4915 -0.1216
vn 0.7744 0.4473 -0.4473
vn 0.8623 0.1216 -0.4915
vn 0.4915 0.1216 0.8623
vn 0.4473 0.4473 0.7744
vn 0.1216 0.4915 0.8623
vn 0.8623 0.1216 0.4915
vn 0.7744 0.4473 0.4473
vn 0.8623 0.4915 0.1216
vn 0.4915 0.8623 0.1216
vn 0.4473 0.7744 0.4473
vn 0.1216 0.8623 0.4915
vn -0.8623 0.1216 0.4915
vn -0.7744 0.4473 0.4473
vn -0.8623 0.4915 0.1216
vn -0.4915 0.1216 0.8623
vn -0.4473 0.4473 0.7744
vn -0.1216 0.4915 0.8623
vn -0.1216 0.8623 0.4915
vn -0.4473 0.7744 0.4473
vn -0.4915 0.8623 0.1216
vn -0.8623 0.4915 -0.1216
vn -0.7744 0.4473 -0.4473
vn -0.8623 0.1216 -0.4915
vn -0.4915 0.8623 -0.1216
vn -0.4473 0.7744 -0.4473
vn -0.1216 0.8623 -0.4915
vn -0.1216 0.4915 -0.8623
vn -0.4473 0.4473 -0.7744
vn -0.4915 0.1216 -0.8623
usemtl Material
s 1
f 49//1 3//2 37//3 87//4
f 14//5 61//6 74//7 25//8
f 26//9 73//10 85//11 39//12
f 50//13 86//14 75//15 63//16
f 1//17 51//18 62//19 13//20
f 1//17 4//21 6//22 5//23
f 4//21 8//24 9//25 6//22
f 2//26 7//27 9//25 8//24
f 7//27 11//28 12//29 9//25
f 3//2 10//30 12//29 11//28
f 10//30 5//23 6//22 12//29
f 6//22 9//25 12//29
f 13//20 16//31 18//32 17//33
f 16//31 20//34 21//35 18//32
f 14//5 19//36 21//35 20//34
f 19//36 23//37 24//38 21//35
f 15//39 22//40 24//38 23//37
f 22//40 17//33 18//32 24//38
f 18//32 21//35 24//38
f 25//8 28//41 30//42 29//43
f 28//41 32//44 33//45 30//42
f 26//9 31//46 33//45 32//44
f 31//46 35//47 36//48 33//45
f 27//49 34//50 36//48 35//47
f 34//50 29//43 30//42 36//48
f 30//42 33//45 36//48
f 37//3 40//51 42//52 41//53
f 40//51 44//54 45//55 42//52
f 38//56 43//57 45//55 44//54
f 43//57 47//58 48//59 45//55
f 39//12 46//60 48//59 47//58
f 46//60 41//53 42//52 48//59
f 42//52 45//55 48//59
f 49//1 52//61 54//62 53//63
f 52//61 56//64 57//65 54//62
f 50//13 55//66 57//65 56//64
f 55//66 59//67 60//68 57//65
f 51//18 58//69 60//68 59//67
f 58//69 53//63 54//62 60//68
f 54//62 57//65 60//68
f 61//6 64//70 66//71 65//72
f 64//70 68//73 69//74 66//71
f 62//19 67//75 69//74 68//73
f 67//75 71//76 72//77 69//74
f 63//16 70//78 72//77 71//76
f 70//78 65//72 66//71 72//77
f 66//71 69//74 72//77
f 73//10 76//79 78//80 77//81
f 76//79 80//82 81//83 78//80
f 74//7 79//84 81//83 80//82
f 79//84 83//85 84//86 81//83
f 75//15 82//87 84//86 83//85
f 82//87 77//81 78//80 84//86
f 78//80 81//83 84//86
f 85//11 88//88 90//89 89//90
f 88//88 92//91 93//92 90//89
f 86//14 91//93 93//92 92//91
f 91//93 95//94 96//95 93//92
f 87//4 94//96 96//95 95//94
f 94//96 89//90 90//89 96//95
f 90//89 93//92 96//95
f 1//17 13//20 17//33 4//21
f 4//21 17//33 22//40 8//24
f 8//24 22//40 15//39 2//26
f 2//26 38//56 44//54 7//27
f 7//27 44//54 40//51 11//28
f 11//28 40//51 37//3 3//2
f 3//2 49//1 53//63 10//30
f 10//30 53//63 58//69 5//23
f 5//23 58//69 51//18 1//17
f 14//5 25//8 29//43 19//36
f 19//36 29//43 34//50 23//37
f 23//37 34//50 27//49 15//39
f 13//20 62//19 68//73 16//31
f 16//31 68//73 64//70 20//34
f 20//34 64//70 61//6 14//5
f 26//9 39//12 47//58 31//46
f 31//46 47//58 43//57 35//47
f 35//47 43//57 38//56 27//49
f 25//8 74//7 80//82 28//41
f 28//41 80//82 76//79 32//44
f 32//44 76//79 73//10 26//9
f 39//12 85//11 89//90 46//60
f 46//60 89//90 94//96 41//53
f 41//53 94//96 87//4 37//3
f 50//13 63//16 71//76 55//66
f 55//66 71//76 67//75 59//67
f 59//67 67//75 62//19 51//18
f 49//1 87//4 95//94 52//61
f 52//61 95//94 91//93 56//64
f 56//64 91//93 86//14 50//13
f 63//16 75//15 83//85 70//78
f 70//78 83//85 79//84 65//72
f 65//72 79//84 74//7 61//6
f 75//15 86//14 92//91 82//87
f 82//87 92//91 88//88 77//81
f 77//81 88//88 85//11 73//10
f 2//26 15//39 27//49 38//56
